<svg xmlns="http://www.w3.org/2000/svg" width="4.184" height="11" viewBox="0 0 4.184 11"><defs><style>.a{fill:#6a0c0e;}</style></defs><path class="a" d="M2264.485,1489.038a.166.166,0,0,0,.13-.063l1.929-2.445a.223.223,0,0,0,.032-.222.164.164,0,0,0-.158-.121H2265.2v-7.946a.216.216,0,0,0-.049-.146.158.158,0,0,0-.125-.058h-1.046a.157.157,0,0,0-.125.058.216.216,0,0,0-.049.146v7.945h-1.221a.159.159,0,0,0-.158.122.231.231,0,0,0,.027.222l1.907,2.445A.161.161,0,0,0,2264.485,1489.038Z" transform="translate(-2262.409 -1478.038)"/></svg>