<svg xmlns="http://www.w3.org/2000/svg" width="4.185" height="11" viewBox="0 0 4.185 11"><defs><style>.a{fill:#fff;}</style></defs><path class="a" d="M2256.23,1478.1l-1.907,2.445a.23.23,0,0,0-.027.222.16.16,0,0,0,.158.122h1.22v7.945a.215.215,0,0,0,.049.146.157.157,0,0,0,.125.057h1.046a.158.158,0,0,0,.125-.057.215.215,0,0,0,.049-.146v-7.945h1.22a.165.165,0,0,0,.158-.121.223.223,0,0,0-.033-.222l-1.929-2.445a.167.167,0,0,0-.131-.063A.16.16,0,0,0,2256.23,1478.1Z" transform="translate(-2254.279 -1478.038)"/></svg>